<?xml version="1.0" standalone="no"?>
<!DOCTYPE svg PUBLIC "-//W3C//DTD SVG 20010904//EN"
        "http://www.w3.org/TR/2001/REC-SVG-20010904/DTD/svg10.dtd">
<svg version="1.0" xmlns="http://www.w3.org/2000/svg"
     width="176.000000pt" height="57.000000pt" viewBox="0 0 176.000000 57.000000"
     preserveAspectRatio="xMidYMid meet">
    <path d="M348 423 c-22 -6 -23 -19 -3 -27 12 -4 15 -25 15 -95 0 -86 1 -89 24
-95 29 -7 74 8 92 32 18 24 17 63 -2 91 -14 19 -23 22 -50 18 l-34 -6 0 45 c0
44 -3 47 -42 37z m103 -124 c16 -31 -3 -69 -36 -69 -22 0 -25 4 -25 38 0 21 3
42 7 45 13 14 43 6 54 -14z"/>
    <path d="M658 423 c-22 -6 -23 -19 -3 -27 12 -4 15 -24 15 -86 0 -47 -4 -80
-10 -80 -5 0 -10 -4 -10 -10 0 -5 17 -10 37 -10 29 0 34 3 25 12 -8 8 -12 47
-12 110 0 101 0 102 -42 91z"/>
    <path d="M745 420 c-8 -13 5 -80 15 -80 11 0 20 27 20 61 0 29 -22 41 -35 19z"/>
    <path d="M1178 423 c-19 -5 -25 -23 -8 -23 15 0 13 -163 -2 -178 -9 -9 -2 -12
32 -12 34 0 41 3 32 12 -8 8 -12 47 -12 110 0 101 0 102 -42 91z"/>
    <path d="M215 343 c-14 -32 -33 -75 -44 -96 l-19 -37 29 0 c26 0 29 3 23 25
-6 24 -4 25 36 25 40 0 42 -1 36 -25 -6 -23 -4 -25 29 -25 19 0 35 5 35 10 0
6 -4 10 -9 10 -4 0 -23 38 -41 85 -18 47 -37 85 -42 85 -5 0 -20 -26 -33 -57z
m45 -45 c0 -4 -9 -8 -21 -8 -15 0 -19 4 -15 16 3 9 6 21 6 27 1 13 30 -22 30
-35z"/>
    <path d="M996 391 c-4 -6 -2 -11 3 -11 15 0 14 -143 -1 -158 -9 -9 2 -12 50
-12 49 0 66 4 82 20 24 24 25 38 5 60 -13 14 -14 22 -4 44 10 22 10 29 -3 42
-19 19 -122 31 -132 15z m92 -20 c21 -13 10 -46 -16 -49 -19 -3 -22 1 -22 27
0 31 13 39 38 22z m17 -111 c0 -20 -6 -26 -27 -28 -25 -3 -28 0 -28 28 0 28 3
31 28 28 21 -2 27 -8 27 -28z"/>
    <path d="M531 324 c-28 -35 -26 -69 4 -99 29 -30 56 -32 78 -7 24 26 21 33 -8
20 -19 -8 -28 -8 -40 2 -28 23 -18 40 25 40 33 0 40 3 40 19 0 51 -66 67 -99
25z m67 -11 c2 -8 -6 -13 -22 -13 -25 0 -33 10 -19 24 10 10 36 3 41 -11z"/>
    <path d="M826 334 c-25 -24 -19 -43 19 -65 19 -12 35 -25 35 -29 0 -18 -24
-22 -35 -7 -16 23 -35 21 -35 -2 0 -23 39 -35 74 -21 37 14 35 53 -4 77 -31
18 -40 43 -16 43 8 0 17 -8 20 -17 5 -12 10 -13 18 -5 6 6 8 18 5 26 -8 21
-61 21 -81 0z"/>
    <path d="M1273 324 c-20 -20 -24 -31 -19 -57 8 -42 26 -58 65 -59 42 -1 71 27
71 69 0 68 -68 96 -117 47z m78 -18 c15 -32 4 -76 -19 -76 -25 0 -42 20 -42
50 0 50 42 67 61 26z"/>
    <path d="M1437 337 c-14 -9 -16 -25 -14 -75 1 -35 -1 -66 -5 -68 -4 -3 -8 -14
-8 -25 0 -43 98 -46 126 -4 25 39 0 64 -63 65 -13 0 -23 4 -23 9 0 5 11 9 25
8 33 0 55 20 55 49 0 13 5 24 10 24 6 0 10 6 10 13 0 17 -91 21 -113 4z m58
-37 c0 -29 -32 -41 -41 -16 -9 24 4 48 23 44 12 -2 18 -12 18 -28z m18 -106
c13 -13 -7 -34 -33 -34 -30 0 -45 13 -35 30 7 11 58 14 68 4z"/>
</svg>
